<svg xmlns="http://www.w3.org/2000/svg" width="20" height="48" viewBox="0 0 20 48" fill="none">
<path d="M14.7828 10.8814C15.5212 10.8814 16.2008 11.024 16.8218 11.3093C18.6649 12.237 19.7532 14.0002 19.767 15.9663V29.5092C19.4213 31.6622 16.957 31.0767 16.8973 29.5092V16.7215C16.6777 15.9922 15.2696 16.2946 15.2359 16.7215V46.0729C14.8779 49.07 11.005 48.1902 10.9062 46.0226V28.0492C10.6586 26.8899 9.02881 27.4167 8.99309 28.0996C9.06221 34.0737 9.04345 40.0482 9.04345 46.0226C8.65721 49.0043 4.80317 48.2414 4.71373 46.0729L4.66341 16.7215C4.43769 16.008 3.13289 16.2816 3.10265 16.7215V29.5092C2.75689 31.6622 0.292651 31.0767 0.232971 29.5092V15.9663C0.267811 14.084 0.95765 12.1984 2.59921 11.3093C3.13625 11.024 3.79073 10.8814 4.56269 10.8814L14.7828 10.8814ZM14.732 4.73108C14.732 7.344 12.6138 9.4622 10.0009 9.4622C7.38801 9.4622 5.26981 7.344 5.26981 4.73108C5.26977 2.1182 7.38797 0 10.0008 0C12.6138 0 14.732 2.1182 14.732 4.73108Z" fill="#0083FF"/>
</svg>