<svg width="49" height="48" viewBox="0 0 49 48" fill="none" xmlns="http://www.w3.org/2000/svg">
<g id="el:person">
<path id="Vector" d="M29.2828 10.8814C30.0212 10.8814 30.7008 11.024 31.3218 11.3093C33.1649 12.237 34.2532 14.0002 34.267 15.9663V29.5092C33.9213 31.6622 31.457 31.0767 31.3974 29.5092V16.7215C31.1778 15.9922 29.7696 16.2946 29.736 16.7215V46.0729C29.3779 49.07 25.505 48.1902 25.4063 46.0226V28.0492C25.1586 26.8899 23.5288 27.4167 23.4931 28.0996C23.5622 34.0737 23.5435 40.0482 23.5435 46.0226C23.1572 49.0043 19.3032 48.2414 19.2138 46.0729L19.1634 16.7215C18.9377 16.008 17.6329 16.2816 17.6027 16.7215V29.5092C17.2569 31.6622 14.7927 31.0767 14.733 29.5092V15.9663C14.7678 14.084 15.4577 12.1984 17.0992 11.3093C17.6363 11.024 18.2908 10.8814 19.0627 10.8814L29.2828 10.8814ZM29.232 4.73108C29.232 7.344 27.1138 9.4622 24.5009 9.4622C21.888 9.4622 19.7698 7.344 19.7698 4.73108C19.7698 2.1182 21.888 0 24.5008 0C27.1138 0 29.232 2.1182 29.232 4.73108Z" fill="#A48C6C"/>
</g>
</svg>
