<svg xmlns="http://www.w3.org/2000/svg" width="48" height="48" viewBox="0 0 48 48" fill="none">
  <path d="M36 20.96V12C36 9.8 34.2 8 32 8H8C5.8 8 4 9.8 4 12V36C4 38.2 5.8 40 8 40H32C34.2 40 36 38.2 36 36V27.04L44 35V13L36 20.96ZM20 16C22.2 16 24 17.8 24 20C24 22.2 22.2 24 20 24C17.8 24 16 22.2 16 20C16 17.8 17.8 16 20 16ZM28 32H12V30.86C12 29.24 12.96 27.8 14.44 27.16C16.1937 26.3946 18.0865 25.9996 20 25.9996C21.9135 25.9996 23.8063 26.3946 25.56 27.16C26.2846 27.4697 26.9022 27.9855 27.336 28.6434C27.7698 29.3012 28.0007 30.072 28 30.86V32Z" fill="black"/>
</svg>