<svg xmlns="http://www.w3.org/2000/svg" width="48" height="48" viewBox="0 0 48 48" fill="none">
  <path d="M23.6006 21.8C19.0606 20.62 17.6006 19.4 17.6006 17.5C17.6006 15.32 19.6206 13.8 23.0006 13.8C26.5606 13.8 27.8806 15.5 28.0006 18H32.4206C32.2806 14.56 30.1806 11.4 26.0006 10.38V6H20.0006V10.32C16.1206 11.16 13.0006 13.68 13.0006 17.54C13.0006 22.16 16.8206 24.46 22.4006 25.8C27.4006 27 28.4006 28.76 28.4006 30.62C28.4006 32 27.4206 34.2 23.0006 34.2C18.8806 34.2 17.2606 32.36 17.0406 30H12.6406C12.8806 34.38 16.1606 36.84 20.0006 37.66V42H26.0006V37.7C29.9006 36.96 33.0006 34.7 33.0006 30.6C33.0006 24.92 28.1406 22.98 23.6006 21.8Z" fill="black"/>
</svg>