<svg width="49" height="48" viewBox="0 0 49 48" fill="none" xmlns="http://www.w3.org/2000/svg">
<g id="Frame">
<path id="Vector" d="M24.1 21.8C19.56 20.62 18.1 19.4 18.1 17.5C18.1 15.32 20.12 13.8 23.5 13.8C27.06 13.8 28.38 15.5 28.5 18H32.92C32.78 14.56 30.68 11.4 26.5 10.38V6H20.5V10.32C16.62 11.16 13.5 13.68 13.5 17.54C13.5 22.16 17.32 24.46 22.9 25.8C27.9 27 28.9 28.76 28.9 30.62C28.9 32 27.92 34.2 23.5 34.2C19.38 34.2 17.76 32.36 17.54 30H13.14C13.38 34.38 16.66 36.84 20.5 37.66V42H26.5V37.7C30.4 36.96 33.5 34.7 33.5 30.6C33.5 24.92 28.64 22.98 24.1 21.8Z" fill="#A48C6C"/>
</g>
</svg>
