<svg xmlns="http://www.w3.org/2000/svg" width="22" height="36" viewBox="0 0 22 36" fill="none">
<path d="M11.78 15.8C7.24001 14.62 5.78001 13.4 5.78001 11.5C5.78001 9.32 7.80001 7.8 11.18 7.8C14.74 7.8 16.06 9.5 16.18 12H20.6C20.46 8.56 18.36 5.4 14.18 4.38V0H8.18001V4.32C4.30001 5.16 1.18001 7.68 1.18001 11.54C1.18001 16.16 5.00001 18.46 10.58 19.8C15.58 21 16.58 22.76 16.58 24.62C16.58 26 15.6 28.2 11.18 28.2C7.06001 28.2 5.44001 26.36 5.22001 24H0.820007C1.06001 28.38 4.34001 30.84 8.18001 31.66V36H14.18V31.7C18.08 30.96 21.18 28.7 21.18 24.6C21.18 18.92 16.32 16.98 11.78 15.8Z" fill="#0083FF"/>
</svg>