<svg xmlns="http://www.w3.org/2000/svg" width="48" height="48" viewBox="0 0 48 48" fill="none">
  <path d="M28.7822 10.8814C29.5207 10.8814 30.2003 11.024 30.8212 11.3093C32.6643 12.237 33.7526 14.0002 33.7665 15.9663V29.5092C33.4207 31.6622 30.9565 31.0767 30.8968 29.5092V16.7215C30.6772 15.9922 29.2691 16.2946 29.2354 16.7215V46.0729C28.8773 49.07 25.0045 48.1902 24.9057 46.0226V28.0492C24.6581 26.8899 23.0283 27.4167 22.9925 28.0996C23.0617 34.0737 23.0429 40.0482 23.0429 46.0226C22.6567 49.0043 18.8026 48.2414 18.7132 46.0729L18.6629 16.7215C18.4371 16.008 17.1323 16.2816 17.1021 16.7215V29.5092C16.7563 31.6622 14.2921 31.0767 14.2324 29.5092V15.9663C14.2673 14.084 14.9571 12.1984 16.5987 11.3093C17.1357 11.024 17.7902 10.8814 18.5621 10.8814L28.7822 10.8814ZM28.7315 4.73108C28.7315 7.344 26.6133 9.4622 24.0003 9.4622C21.3875 9.4622 19.2693 7.344 19.2693 4.73108C19.2692 2.1182 21.3874 0 24.0003 0C26.6133 0 28.7315 2.1182 28.7315 4.73108Z" fill="black"/>
</svg>