<svg xmlns="http://www.w3.org/2000/svg" width="24" height="24" viewBox="0 0 24 24" fill="none">
  <g clip-path="url(#clip0_541_346)">
    <path fill-rule="evenodd" clip-rule="evenodd" d="M2.82747 0.766232C3.08994 0.504165 3.4051 0.300869 3.75207 0.169817C4.09904 0.0387646 4.46991 -0.0170519 4.84008 0.00606638C5.21026 0.0291847 5.5713 0.13071 5.89927 0.303914C6.22724 0.477118 6.51466 0.718046 6.74247 1.01073L9.43497 4.46973C9.92847 5.10423 10.1025 5.93073 9.90747 6.71073L9.08697 9.99573C9.04485 10.1659 9.04729 10.344 9.09406 10.513C9.14082 10.6819 9.23034 10.836 9.35397 10.9602L13.0395 14.6457C13.1639 14.7696 13.3182 14.8593 13.4874 14.9061C13.6567 14.9528 13.8351 14.9551 14.0055 14.9127L17.289 14.0922C17.6739 13.9965 18.0756 13.9894 18.4637 14.0712C18.8519 14.153 19.2164 14.3218 19.53 14.5647L22.989 17.2557C24.2325 18.2232 24.3465 20.0607 23.2335 21.1722L21.6825 22.7232C20.5725 23.8332 18.9135 24.3207 17.367 23.7762C13.408 22.3851 9.81378 20.1189 6.85197 17.1462C3.87953 14.1849 1.6133 10.5912 0.221974 6.63273C-0.321026 5.08773 0.166474 3.42723 1.27647 2.31723L2.82747 0.766232Z" fill="#0083FF"/>
  </g>
  <defs>
    <clipPath id="clip0_541_346">
      <rect width="24" height="24" fill="white"/>
    </clipPath>
  </defs>
</svg>